<mxfile host="Electron" modified="2024-03-09T22:37:51.142Z" agent="Mozilla/5.0 (Macintosh; Intel Mac OS X 10_15_7) AppleWebKit/537.36 (KHTML, like Gecko) draw.io/23.1.5 Chrome/120.0.6099.109 Electron/28.1.0 Safari/537.36" etag="fQX-ITRQcf5x5N2a9xmv" version="23.1.5" type="device">
  <diagram name="Page-1" id="13e1069c-82ec-6db2-03f1-153e76fe0fe0">
    <mxGraphModel dx="1247" dy="1049" grid="1" gridSize="10" guides="1" tooltips="1" connect="1" arrows="1" fold="1" page="1" pageScale="1" pageWidth="827" pageHeight="1169" background="none" math="0" shadow="0">
      <root>
        <mxCell id="0" />
        <mxCell id="1" parent="0" />
        <mxCell id="7baba1c4bc27f4b0-6" value="elevator1" style="shape=umlLifeline;perimeter=lifelinePerimeter;whiteSpace=wrap;html=1;container=1;collapsible=0;recursiveResize=0;outlineConnect=0;rounded=0;shadow=0;comic=0;labelBackgroundColor=none;strokeWidth=1;fontFamily=Verdana;fontSize=12;align=center;" parent="1" vertex="1">
          <mxGeometry x="460" y="80" width="100" height="310" as="geometry" />
        </mxCell>
        <mxCell id="VshZdJGAzdDfUYkhEIwC-11" value="" style="html=1;points=[[0,0,0,0,5],[0,1,0,0,-5],[1,0,0,0,5],[1,1,0,0,-5]];perimeter=orthogonalPerimeter;outlineConnect=0;targetShapes=umlLifeline;portConstraint=eastwest;newEdgeStyle={&quot;curved&quot;:0,&quot;rounded&quot;:0};" parent="7baba1c4bc27f4b0-6" vertex="1">
          <mxGeometry x="45" y="60" width="10" height="90" as="geometry" />
        </mxCell>
        <mxCell id="VshZdJGAzdDfUYkhEIwC-8" value="setFireAlarm(true)" style="html=1;verticalAlign=bottom;endArrow=block;curved=0;rounded=0;" parent="7baba1c4bc27f4b0-6" edge="1">
          <mxGeometry width="80" relative="1" as="geometry">
            <mxPoint x="-100" y="179.5" as="sourcePoint" />
            <mxPoint x="179.5" y="179.5" as="targetPoint" />
          </mxGeometry>
        </mxCell>
        <mxCell id="VshZdJGAzdDfUYkhEIwC-15" value="movePassenger()" style="html=1;verticalAlign=bottom;endArrow=block;curved=0;rounded=0;" parent="7baba1c4bc27f4b0-6" edge="1">
          <mxGeometry width="80" relative="1" as="geometry">
            <mxPoint x="-100" y="160" as="sourcePoint" />
            <mxPoint x="429.5" y="160" as="targetPoint" />
          </mxGeometry>
        </mxCell>
        <mxCell id="VshZdJGAzdDfUYkhEIwC-43" value="" style="html=1;points=[[0,0,0,0,5],[0,1,0,0,-5],[1,0,0,0,5],[1,1,0,0,-5]];perimeter=orthogonalPerimeter;outlineConnect=0;targetShapes=umlLifeline;portConstraint=eastwest;newEdgeStyle={&quot;curved&quot;:0,&quot;rounded&quot;:0};" parent="7baba1c4bc27f4b0-6" vertex="1">
          <mxGeometry x="49" y="100" width="10" height="40" as="geometry" />
        </mxCell>
        <mxCell id="VshZdJGAzdDfUYkhEIwC-44" value="getFireAlarm()" style="html=1;verticalAlign=bottom;endArrow=block;curved=0;rounded=0;entryX=0;entryY=0;entryDx=0;entryDy=5;" parent="7baba1c4bc27f4b0-6" target="VshZdJGAzdDfUYkhEIwC-43" edge="1">
          <mxGeometry relative="1" as="geometry">
            <mxPoint x="-100" y="105" as="sourcePoint" />
          </mxGeometry>
        </mxCell>
        <mxCell id="VshZdJGAzdDfUYkhEIwC-45" value="true" style="html=1;verticalAlign=bottom;endArrow=open;dashed=1;endSize=8;curved=0;rounded=0;exitX=0;exitY=1;exitDx=0;exitDy=-5;" parent="7baba1c4bc27f4b0-6" source="VshZdJGAzdDfUYkhEIwC-43" edge="1">
          <mxGeometry relative="1" as="geometry">
            <mxPoint x="-100" y="135" as="targetPoint" />
          </mxGeometry>
        </mxCell>
        <mxCell id="7baba1c4bc27f4b0-8" value="&lt;u style=&quot;font-family: Helvetica;&quot;&gt;:MainWindow&lt;/u&gt;" style="shape=umlLifeline;perimeter=lifelinePerimeter;whiteSpace=wrap;html=1;container=1;collapsible=0;recursiveResize=0;outlineConnect=0;rounded=0;shadow=0;comic=0;labelBackgroundColor=none;strokeWidth=1;fontFamily=Verdana;fontSize=12;align=center;" parent="1" vertex="1">
          <mxGeometry x="170" y="80" width="100" height="300" as="geometry" />
        </mxCell>
        <mxCell id="VshZdJGAzdDfUYkhEIwC-4" value="" style="html=1;points=[[0,0,0,0,5],[0,1,0,0,-5],[1,0,0,0,5],[1,1,0,0,-5]];perimeter=orthogonalPerimeter;outlineConnect=0;targetShapes=umlLifeline;portConstraint=eastwest;newEdgeStyle={&quot;curved&quot;:0,&quot;rounded&quot;:0};" parent="7baba1c4bc27f4b0-8" vertex="1">
          <mxGeometry x="45" y="70" width="10" height="200" as="geometry" />
        </mxCell>
        <mxCell id="njjIKBGVUexXjN1y7_SK-5" value="ECS" style="shape=umlLifeline;perimeter=lifelinePerimeter;whiteSpace=wrap;html=1;container=1;collapsible=0;recursiveResize=0;outlineConnect=0;rounded=0;shadow=0;comic=0;labelBackgroundColor=none;strokeWidth=1;fontFamily=Verdana;fontSize=12;align=center;" parent="1" vertex="1">
          <mxGeometry x="300" y="80" width="110" height="310" as="geometry" />
        </mxCell>
        <mxCell id="VshZdJGAzdDfUYkhEIwC-3" value="" style="html=1;points=[[0,0,0,0,5],[0,1,0,0,-5],[1,0,0,0,5],[1,1,0,0,-5]];perimeter=orthogonalPerimeter;outlineConnect=0;targetShapes=umlLifeline;portConstraint=eastwest;newEdgeStyle={&quot;curved&quot;:0,&quot;rounded&quot;:0};" parent="njjIKBGVUexXjN1y7_SK-5" vertex="1">
          <mxGeometry x="50" y="60" width="10" height="210" as="geometry" />
        </mxCell>
        <mxCell id="VshZdJGAzdDfUYkhEIwC-5" value="setFireAlarm(true)" style="html=1;verticalAlign=bottom;endArrow=block;curved=0;rounded=0;" parent="njjIKBGVUexXjN1y7_SK-5" target="VshZdJGAzdDfUYkhEIwC-11" edge="1">
          <mxGeometry x="0.0073" width="80" relative="1" as="geometry">
            <mxPoint x="60" y="90" as="sourcePoint" />
            <mxPoint x="200" y="90" as="targetPoint" />
            <mxPoint as="offset" />
          </mxGeometry>
        </mxCell>
        <mxCell id="gf-mk5fgO78RV_vx_Tm_-2" value="receiveFireAlarmBuilding()" style="html=1;verticalAlign=bottom;startArrow=none;endArrow=block;startSize=8;curved=0;rounded=0;entryX=0;entryY=0;entryDx=0;entryDy=5;startFill=0;" parent="1" source="VshZdJGAzdDfUYkhEIwC-4" edge="1">
          <mxGeometry relative="1" as="geometry">
            <mxPoint x="230" y="165" as="sourcePoint" />
            <mxPoint x="350" y="165" as="targetPoint" />
          </mxGeometry>
        </mxCell>
        <mxCell id="gf-mk5fgO78RV_vx_Tm_-18" value="[ECS recieves fire alarm from the building]" style="text;html=1;align=center;verticalAlign=middle;resizable=0;points=[];autosize=1;strokeColor=none;fillColor=none;" parent="1" vertex="1">
          <mxGeometry x="10" y="30" width="250" height="30" as="geometry" />
        </mxCell>
        <mxCell id="gf-mk5fgO78RV_vx_Tm_-19" value="[ECS recieves fire alarm from the elevator]" style="text;html=1;align=center;verticalAlign=middle;resizable=0;points=[];autosize=1;strokeColor=none;fillColor=none;" parent="1" vertex="1">
          <mxGeometry x="50" y="540" width="250" height="30" as="geometry" />
        </mxCell>
        <mxCell id="VshZdJGAzdDfUYkhEIwC-1" value="" style="shape=umlLifeline;perimeter=lifelinePerimeter;whiteSpace=wrap;html=1;container=1;dropTarget=0;collapsible=0;recursiveResize=0;outlineConnect=0;portConstraint=eastwest;newEdgeStyle={&quot;curved&quot;:0,&quot;rounded&quot;:0};participant=umlActor;" parent="1" vertex="1">
          <mxGeometry x="50" y="70" width="20" height="300" as="geometry" />
        </mxCell>
        <mxCell id="VshZdJGAzdDfUYkhEIwC-2" value="onFireAlarmChecked()" style="html=1;verticalAlign=bottom;endArrow=block;curved=0;rounded=0;" parent="1" target="7baba1c4bc27f4b0-8" edge="1">
          <mxGeometry width="80" relative="1" as="geometry">
            <mxPoint x="60" y="150" as="sourcePoint" />
            <mxPoint x="100" y="150" as="targetPoint" />
          </mxGeometry>
        </mxCell>
        <mxCell id="VshZdJGAzdDfUYkhEIwC-6" value="elevator2" style="shape=umlLifeline;perimeter=lifelinePerimeter;whiteSpace=wrap;html=1;container=1;dropTarget=0;collapsible=0;recursiveResize=0;outlineConnect=0;portConstraint=eastwest;newEdgeStyle={&quot;curved&quot;:0,&quot;rounded&quot;:0};" parent="1" vertex="1">
          <mxGeometry x="590" y="80" width="100" height="300" as="geometry" />
        </mxCell>
        <mxCell id="VshZdJGAzdDfUYkhEIwC-7" value="elevator3" style="shape=umlLifeline;perimeter=lifelinePerimeter;whiteSpace=wrap;html=1;container=1;dropTarget=0;collapsible=0;recursiveResize=0;outlineConnect=0;portConstraint=eastwest;newEdgeStyle={&quot;curved&quot;:0,&quot;rounded&quot;:0};" parent="1" vertex="1">
          <mxGeometry x="720" y="80" width="100" height="300" as="geometry" />
        </mxCell>
        <mxCell id="VshZdJGAzdDfUYkhEIwC-9" value="setFireAlarm(true)" style="html=1;verticalAlign=bottom;endArrow=block;curved=0;rounded=0;" parent="1" edge="1">
          <mxGeometry width="80" relative="1" as="geometry">
            <mxPoint x="360" y="289.40999999999997" as="sourcePoint" />
            <mxPoint x="769.5" y="289.40999999999997" as="targetPoint" />
          </mxGeometry>
        </mxCell>
        <mxCell id="VshZdJGAzdDfUYkhEIwC-10" value="passenger1" style="shape=umlLifeline;perimeter=lifelinePerimeter;whiteSpace=wrap;html=1;container=1;dropTarget=0;collapsible=0;recursiveResize=0;outlineConnect=0;portConstraint=eastwest;newEdgeStyle={&quot;curved&quot;:0,&quot;rounded&quot;:0};" parent="1" vertex="1">
          <mxGeometry x="840" y="80" width="100" height="300" as="geometry" />
        </mxCell>
        <mxCell id="VshZdJGAzdDfUYkhEIwC-16" value="" style="html=1;points=[[0,0,0,0,5],[0,1,0,0,-5],[1,0,0,0,5],[1,1,0,0,-5]];perimeter=orthogonalPerimeter;outlineConnect=0;targetShapes=umlLifeline;portConstraint=eastwest;newEdgeStyle={&quot;curved&quot;:0,&quot;rounded&quot;:0};" parent="VshZdJGAzdDfUYkhEIwC-10" vertex="1">
          <mxGeometry x="45" y="140" width="10" height="80" as="geometry" />
        </mxCell>
        <mxCell id="VshZdJGAzdDfUYkhEIwC-18" value="exitElevator()" style="html=1;align=left;spacingLeft=2;endArrow=block;rounded=0;edgeStyle=orthogonalEdgeStyle;curved=0;rounded=0;" parent="VshZdJGAzdDfUYkhEIwC-10" target="VshZdJGAzdDfUYkhEIwC-16" edge="1">
          <mxGeometry relative="1" as="geometry">
            <mxPoint x="55" y="150" as="sourcePoint" />
            <Array as="points">
              <mxPoint x="85" y="150" />
              <mxPoint x="85" y="180" />
            </Array>
            <mxPoint x="59.999999999999545" y="180" as="targetPoint" />
          </mxGeometry>
        </mxCell>
        <mxCell id="VshZdJGAzdDfUYkhEIwC-12" value="moveElevatorToFloor(elevator1, floor7)" style="html=1;verticalAlign=bottom;endArrow=block;curved=0;rounded=0;entryX=0;entryY=0;entryDx=0;entryDy=5;" parent="1" source="VshZdJGAzdDfUYkhEIwC-3" target="VshZdJGAzdDfUYkhEIwC-11" edge="1">
          <mxGeometry relative="1" as="geometry">
            <mxPoint x="440" y="255" as="sourcePoint" />
          </mxGeometry>
        </mxCell>
        <mxCell id="VshZdJGAzdDfUYkhEIwC-19" value="elevator1" style="shape=umlLifeline;perimeter=lifelinePerimeter;whiteSpace=wrap;html=1;container=1;collapsible=0;recursiveResize=0;outlineConnect=0;rounded=0;shadow=0;comic=0;labelBackgroundColor=none;strokeWidth=1;fontFamily=Verdana;fontSize=12;align=center;" parent="1" vertex="1">
          <mxGeometry x="510" y="600" width="100" height="310" as="geometry" />
        </mxCell>
        <mxCell id="VshZdJGAzdDfUYkhEIwC-20" value="" style="html=1;points=[[0,0,0,0,5],[0,1,0,0,-5],[1,0,0,0,5],[1,1,0,0,-5]];perimeter=orthogonalPerimeter;outlineConnect=0;targetShapes=umlLifeline;portConstraint=eastwest;newEdgeStyle={&quot;curved&quot;:0,&quot;rounded&quot;:0};" parent="VshZdJGAzdDfUYkhEIwC-19" vertex="1">
          <mxGeometry x="45" y="60" width="10" height="100" as="geometry" />
        </mxCell>
        <mxCell id="VshZdJGAzdDfUYkhEIwC-39" value="" style="html=1;points=[[0,0,0,0,5],[0,1,0,0,-5],[1,0,0,0,5],[1,1,0,0,-5]];perimeter=orthogonalPerimeter;outlineConnect=0;targetShapes=umlLifeline;portConstraint=eastwest;newEdgeStyle={&quot;curved&quot;:0,&quot;rounded&quot;:0};" parent="VshZdJGAzdDfUYkhEIwC-19" vertex="1">
          <mxGeometry x="49" y="100" width="10" height="40" as="geometry" />
        </mxCell>
        <mxCell id="VshZdJGAzdDfUYkhEIwC-21" value="&lt;u style=&quot;font-family: Helvetica;&quot;&gt;:MainWindow&lt;/u&gt;" style="shape=umlLifeline;perimeter=lifelinePerimeter;whiteSpace=wrap;html=1;container=1;collapsible=0;recursiveResize=0;outlineConnect=0;rounded=0;shadow=0;comic=0;labelBackgroundColor=none;strokeWidth=1;fontFamily=Verdana;fontSize=12;align=center;" parent="1" vertex="1">
          <mxGeometry x="220" y="600" width="100" height="300" as="geometry" />
        </mxCell>
        <mxCell id="VshZdJGAzdDfUYkhEIwC-22" value="" style="html=1;points=[[0,0,0,0,5],[0,1,0,0,-5],[1,0,0,0,5],[1,1,0,0,-5]];perimeter=orthogonalPerimeter;outlineConnect=0;targetShapes=umlLifeline;portConstraint=eastwest;newEdgeStyle={&quot;curved&quot;:0,&quot;rounded&quot;:0};" parent="VshZdJGAzdDfUYkhEIwC-21" vertex="1">
          <mxGeometry x="45" y="70" width="10" height="200" as="geometry" />
        </mxCell>
        <mxCell id="VshZdJGAzdDfUYkhEIwC-23" value="ECS" style="shape=umlLifeline;perimeter=lifelinePerimeter;whiteSpace=wrap;html=1;container=1;collapsible=0;recursiveResize=0;outlineConnect=0;rounded=0;shadow=0;comic=0;labelBackgroundColor=none;strokeWidth=1;fontFamily=Verdana;fontSize=12;align=center;" parent="1" vertex="1">
          <mxGeometry x="350" y="600" width="110" height="310" as="geometry" />
        </mxCell>
        <mxCell id="VshZdJGAzdDfUYkhEIwC-24" value="" style="html=1;points=[[0,0,0,0,5],[0,1,0,0,-5],[1,0,0,0,5],[1,1,0,0,-5]];perimeter=orthogonalPerimeter;outlineConnect=0;targetShapes=umlLifeline;portConstraint=eastwest;newEdgeStyle={&quot;curved&quot;:0,&quot;rounded&quot;:0};" parent="VshZdJGAzdDfUYkhEIwC-23" vertex="1">
          <mxGeometry x="50" y="60" width="10" height="210" as="geometry" />
        </mxCell>
        <mxCell id="VshZdJGAzdDfUYkhEIwC-27" value="receiveFireAlarm()" style="html=1;verticalAlign=bottom;startArrow=none;endArrow=block;startSize=8;curved=0;rounded=0;startFill=0;" parent="1" source="VshZdJGAzdDfUYkhEIwC-22" target="VshZdJGAzdDfUYkhEIwC-20" edge="1">
          <mxGeometry relative="1" as="geometry">
            <mxPoint x="280" y="685" as="sourcePoint" />
            <mxPoint x="400" y="685" as="targetPoint" />
            <Array as="points">
              <mxPoint x="420" y="690" />
            </Array>
          </mxGeometry>
        </mxCell>
        <mxCell id="VshZdJGAzdDfUYkhEIwC-28" value="onFireAlarmElevatorChecked()" style="html=1;verticalAlign=bottom;endArrow=block;curved=0;rounded=0;" parent="1" target="VshZdJGAzdDfUYkhEIwC-21" edge="1">
          <mxGeometry width="80" relative="1" as="geometry">
            <mxPoint x="70" y="670" as="sourcePoint" />
            <mxPoint x="150" y="670" as="targetPoint" />
          </mxGeometry>
        </mxCell>
        <mxCell id="VshZdJGAzdDfUYkhEIwC-32" value="passenger1" style="shape=umlLifeline;perimeter=lifelinePerimeter;whiteSpace=wrap;html=1;container=1;dropTarget=0;collapsible=0;recursiveResize=0;outlineConnect=0;portConstraint=eastwest;newEdgeStyle={&quot;curved&quot;:0,&quot;rounded&quot;:0};" parent="1" vertex="1">
          <mxGeometry x="660" y="600" width="100" height="300" as="geometry" />
        </mxCell>
        <mxCell id="VshZdJGAzdDfUYkhEIwC-26" value="movePassenger()" style="html=1;verticalAlign=bottom;endArrow=block;curved=0;rounded=0;" parent="VshZdJGAzdDfUYkhEIwC-32" edge="1">
          <mxGeometry width="80" relative="1" as="geometry">
            <mxPoint x="-250" y="190" as="sourcePoint" />
            <mxPoint x="49.5" y="190" as="targetPoint" />
          </mxGeometry>
        </mxCell>
        <mxCell id="VshZdJGAzdDfUYkhEIwC-33" value="" style="html=1;points=[[0,0,0,0,5],[0,1,0,0,-5],[1,0,0,0,5],[1,1,0,0,-5]];perimeter=orthogonalPerimeter;outlineConnect=0;targetShapes=umlLifeline;portConstraint=eastwest;newEdgeStyle={&quot;curved&quot;:0,&quot;rounded&quot;:0};" parent="VshZdJGAzdDfUYkhEIwC-32" vertex="1">
          <mxGeometry x="45" y="180" width="10" height="80" as="geometry" />
        </mxCell>
        <mxCell id="VshZdJGAzdDfUYkhEIwC-34" value="exitElevator()" style="html=1;align=left;spacingLeft=2;endArrow=block;rounded=0;edgeStyle=orthogonalEdgeStyle;curved=0;rounded=0;" parent="VshZdJGAzdDfUYkhEIwC-32" target="VshZdJGAzdDfUYkhEIwC-33" edge="1">
          <mxGeometry relative="1" as="geometry">
            <mxPoint x="55" y="190" as="sourcePoint" />
            <Array as="points">
              <mxPoint x="85" y="190" />
              <mxPoint x="85" y="220" />
            </Array>
            <mxPoint x="59.999999999999545" y="220" as="targetPoint" />
          </mxGeometry>
        </mxCell>
        <mxCell id="VshZdJGAzdDfUYkhEIwC-35" value="moveElevatorToFloor(elevator1, floor7)" style="html=1;verticalAlign=bottom;endArrow=block;curved=0;rounded=0;entryX=0;entryY=0;entryDx=0;entryDy=5;" parent="1" source="VshZdJGAzdDfUYkhEIwC-24" target="VshZdJGAzdDfUYkhEIwC-20" edge="1">
          <mxGeometry relative="1" as="geometry">
            <mxPoint x="490" y="775" as="sourcePoint" />
          </mxGeometry>
        </mxCell>
        <mxCell id="VshZdJGAzdDfUYkhEIwC-38" value="" style="shape=umlLifeline;perimeter=lifelinePerimeter;whiteSpace=wrap;html=1;container=1;dropTarget=0;collapsible=0;recursiveResize=0;outlineConnect=0;portConstraint=eastwest;newEdgeStyle={&quot;curved&quot;:0,&quot;rounded&quot;:0};participant=umlActor;" parent="1" vertex="1">
          <mxGeometry x="60" y="590" width="20" height="300" as="geometry" />
        </mxCell>
        <mxCell id="VshZdJGAzdDfUYkhEIwC-40" value="getFireAlarm()" style="html=1;verticalAlign=bottom;endArrow=block;curved=0;rounded=0;entryX=0;entryY=0;entryDx=0;entryDy=5;" parent="1" source="VshZdJGAzdDfUYkhEIwC-24" target="VshZdJGAzdDfUYkhEIwC-39" edge="1">
          <mxGeometry relative="1" as="geometry">
            <mxPoint x="489" y="705" as="sourcePoint" />
          </mxGeometry>
        </mxCell>
        <mxCell id="VshZdJGAzdDfUYkhEIwC-41" value="true" style="html=1;verticalAlign=bottom;endArrow=open;dashed=1;endSize=8;curved=0;rounded=0;exitX=0;exitY=1;exitDx=0;exitDy=-5;" parent="1" source="VshZdJGAzdDfUYkhEIwC-39" edge="1">
          <mxGeometry relative="1" as="geometry">
            <mxPoint x="410" y="735" as="targetPoint" />
          </mxGeometry>
        </mxCell>
        <mxCell id="FzDsGwKRHedAJgLUpLZY-1" value="openDoor()" style="html=1;verticalAlign=bottom;endArrow=block;curved=0;rounded=0;" parent="1" target="7baba1c4bc27f4b0-6" edge="1">
          <mxGeometry width="80" relative="1" as="geometry">
            <mxPoint x="360" y="229.5" as="sourcePoint" />
            <mxPoint x="485" y="229.5" as="targetPoint" />
          </mxGeometry>
        </mxCell>
        <mxCell id="FzDsGwKRHedAJgLUpLZY-2" value="openDoor()" style="html=1;verticalAlign=bottom;endArrow=block;curved=0;rounded=0;" parent="1" target="VshZdJGAzdDfUYkhEIwC-19" edge="1">
          <mxGeometry width="80" relative="1" as="geometry">
            <mxPoint x="410" y="760" as="sourcePoint" />
            <mxPoint x="535" y="760" as="targetPoint" />
          </mxGeometry>
        </mxCell>
      </root>
    </mxGraphModel>
  </diagram>
</mxfile>
